<svg height='55px' width='55px'  fill="rgb(27, 197, 189)" xmlns:dc="http://purl.org/dc/elements/1.1/" xmlns:cc="http://creativecommons.org/ns#" xmlns:rdf="http://www.w3.org/1999/02/22-rdf-syntax-ns#" xmlns:svg="http://www.w3.org/2000/svg" xmlns="http://www.w3.org/2000/svg" xmlns:sodipodi="http://sodipodi.sourceforge.net/DTD/sodipodi-0.dtd" xmlns:inkscape="http://www.inkscape.org/namespaces/inkscape" viewBox="0 0 16 16" version="1.1" x="0px" y="0px"><g transform="translate(0,-1036.3622)"><g transform="translate(-162.96418,-43.995077)"><path style="color:#000000;font-style:normal;font-variant:normal;font-weight:normal;font-stretch:normal;font-size:medium;line-height:normal;font-family:sans-serif;text-indent:0;text-align:start;text-decoration:none;text-decoration-line:none;text-decoration-style:solid;text-decoration-color:#000000;letter-spacing:normal;word-spacing:normal;text-transform:none;direction:ltr;block-progression:tb;writing-mode:lr-tb;baseline-shift:baseline;text-anchor:start;white-space:normal;clip-rule:nonzero;display:inline;overflow:visible;visibility:visible;opacity:1;isolation:auto;mix-blend-mode:normal;color-interpolation:sRGB;color-interpolation-filters:linearRGB;solid-color:#000000;solid-opacity:1;fill:#51A7F9;fill-opacity:1;fill-rule:evenodd;stroke:none;stroke-width:0.99999982px;stroke-linecap:butt;stroke-linejoin:miter;stroke-miterlimit:4;stroke-dasharray:none;stroke-dashoffset:0;stroke-opacity:1;color-rendering:auto;image-rendering:auto;shape-rendering:auto;text-rendering:auto;enable-background:accumulate" d="m 167.96417,1084.3573 0,1 1.02539,0.01 c 0.93436,0.01 1.40826,0.4432 1.57813,0.9922 l -2.60351,0 0,1 2.60351,0 c -0.17088,0.5478 -0.64582,0.9902 -1.57813,0.9902 l -0.35156,0 -0.012,0 -0.66211,0 0,0.6777 0,0.062 4.8e-4,0.2679 0.26562,0 3.0796,3.0017 0.69922,-0.7149 -2.41015,-2.3554 c 1.09492,-0.2222 1.79861,-1.034 1.99218,-1.9297 l 1.37334,0 0,-1 -1.37334,0 c -0.0774,-0.3594 -0.24405,-0.7002 -0.47851,-1 l 1.85185,0 0,-1 c -1.66041,-4e-4 -5.00001,0 -5.00001,0 z"></path></g></g></svg>